<!-- Generated by IcoMoon.io -->
<svg version="1.1" xmlns="http://www.w3.org/2000/svg" width="32" height="32" viewBox="0 0 32 32">
<title>pen</title>
<path d="M27.547 2.197c-1.613-1.61-4.225-1.61-5.838 0l-1.461 1.469-15.588 15.58c-0.008 0.008-0.008 0.017-0.017 0.017-0.017 0.025-0.041 0.049-0.058 0.074 0 0.008-0.009 0.008-0.009 0.017-0.017 0.025-0.025 0.041-0.041 0.066-0.008 0.008-0.008 0.016-0.016 0.025-0.008 0.025-0.017 0.041-0.025 0.066 0 0.008-0.008 0.008-0.008 0.017l-3.451 10.378c-0.101 0.295-0.024 0.623 0.198 0.842 0.156 0.154 0.367 0.24 0.586 0.24 0.090-0.002 0.178-0.015 0.264-0.041l10.37-3.459c0.008 0 0.008 0 0.017-0.008 0.026-0.008 0.051-0.019 0.074-0.033 0.006-0.001 0.012-0.004 0.017-0.008 0.025-0.017 0.058-0.033 0.082-0.050s0.050-0.041 0.074-0.058c0.008-0.009 0.016-0.009 0.016-0.017 0.009-0.008 0.025-0.016 0.033-0.033l17.016-17.016c1.61-1.613 1.61-4.225 0-5.837zM12.19 25.546l-5.746-5.746 14.382-14.382 5.746 5.746zM5.634 21.327l5.020 5.020-7.538 2.51zM28.62 9.108l-0.875 0.884-5.747-5.747 0.884-0.883c0.967-0.966 2.534-0.966 3.5 0l2.246 2.246c0.959 0.971 0.956 2.534-0.008 3.501z"></path>
</svg>
