<svg aria-hidden="true" style="position: absolute; width: 0; height: 0; overflow: hidden;" version="1.1" xmlns="http://www.w3.org/2000/svg" xmlns:xlink="http://www.w3.org/1999/xlink">
<defs>
<symbol id="icon-warning-sign" viewBox="0 0 32 32">
<path d="M16 25.467c1.225 0 2.245-0.939 2.348-2.159l1.593-19.022c0.093-1.103-0.281-2.194-1.030-3.008-0.748-0.814-1.804-1.277-2.91-1.277s-2.162 0.464-2.91 1.277c-0.749 0.815-1.123 1.905-1.030 3.008l1.593 19.022c0.103 1.221 1.123 2.159 2.348 2.159z"></path>
<path d="M16 26.867c-1.418 0-2.567 1.149-2.567 2.567s1.149 2.567 2.567 2.567 2.567-1.149 2.567-2.567c0-1.418-1.149-2.567-2.567-2.567z"></path>
</symbol>
<symbol id="icon-unlocked" viewBox="0 0 32 32">
<path d="M24 2c3.308 0 6 2.692 6 6v6h-4v-6c0-1.103-0.897-2-2-2h-4c-1.103 0-2 0.897-2 2v6h0.5c0.825 0 1.5 0.675 1.5 1.5v15c0 0.825-0.675 1.5-1.5 1.5h-17c-0.825 0-1.5-0.675-1.5-1.5v-15c0-0.825 0.675-1.5 1.5-1.5h12.5v-6c0-3.308 2.692-6 6-6h4z"></path>
</symbol>
<symbol id="icon-lock" viewBox="0 0 32 32">
<path d="M16 0c-5.16 0-9.358 4.198-9.358 9.358v5.345c0 0.061-0.075 0.163-0.134 0.183-0.506 0.169-0.917 0.315-1.293 0.46-0.449 0.173-0.787 0.67-0.787 1.157v12.281c0 0.483 0.336 0.981 0.782 1.157 3.449 1.367 7.080 2.060 10.79 2.060s7.341-0.693 10.79-2.060c0.446-0.177 0.782-0.674 0.782-1.157v-12.281c0-0.486-0.338-0.984-0.787-1.157-0.376-0.145-0.787-0.291-1.293-0.46-0.059-0.020-0.134-0.122-0.134-0.183v-5.345c-0-5.16-4.198-9.358-9.358-9.358zM13.451 20.242c0-1.409 1.141-2.549 2.549-2.549s2.549 1.14 2.549 2.549c0 0.933-0.526 1.715-1.274 2.158v4.214c0 0.704-0.57 1.274-1.274 1.274s-1.274-0.57-1.274-1.274v-4.214c-0.748-0.443-1.274-1.225-1.274-2.158zM22.14 9.358v4.611c-2.014-0.433-4.079-0.653-6.14-0.653s-4.125 0.22-6.141 0.652v-4.611c0-3.386 2.755-6.14 6.14-6.14s6.14 2.754 6.14 6.14z"></path>
</symbol>
<symbol id="icon-user-empty-fill" viewBox="0 0 32 32">
<path d="M15.772 15.415c2.118 0 3.951-0.76 5.45-2.258s2.258-3.332 2.258-5.449c0-2.117-0.76-3.951-2.258-5.449s-3.332-2.258-5.449-2.258c-2.118 0-3.951 0.76-5.449 2.258s-2.258 3.332-2.258 5.449c0 2.118 0.76 3.951 2.258 5.45s3.332 2.258 5.449 2.258zM11.649 3.584c1.15-1.15 2.498-1.708 4.123-1.708s2.974 0.559 4.124 1.708c1.15 1.15 1.709 2.499 1.709 4.123s-0.559 2.974-1.709 4.124c-1.15 1.15-2.499 1.709-4.124 1.709s-2.973-0.559-4.123-1.709c-1.15-1.15-1.709-2.499-1.709-4.124s0.559-2.973 1.709-4.123z"></path>
<path d="M29.258 24.606c-0.043-0.624-0.131-1.304-0.259-2.022-0.13-0.724-0.297-1.408-0.497-2.033-0.207-0.646-0.488-1.284-0.836-1.896-0.361-0.635-0.784-1.188-1.26-1.642-0.497-0.476-1.106-0.858-1.81-1.137-0.702-0.278-1.479-0.418-2.311-0.418-0.327 0-0.643 0.134-1.253 0.531-0.375 0.245-0.815 0.528-1.305 0.841-0.419 0.267-0.987 0.517-1.688 0.744-0.684 0.221-1.379 0.334-2.065 0.334s-1.38-0.112-2.065-0.334c-0.701-0.226-1.269-0.477-1.687-0.744-0.486-0.31-0.925-0.593-1.306-0.842-0.61-0.397-0.926-0.531-1.252-0.531-0.832 0-1.609 0.141-2.311 0.419-0.704 0.279-1.313 0.661-1.811 1.137-0.476 0.455-0.899 1.008-1.26 1.642-0.347 0.612-0.629 1.25-0.836 1.896-0.2 0.625-0.367 1.309-0.497 2.033-0.129 0.717-0.216 1.398-0.259 2.023-0.042 0.611-0.064 1.247-0.064 1.89 0 1.67 0.531 3.023 1.578 4.020 1.034 0.984 2.402 1.483 4.067 1.483h15.408c1.664 0 3.032-0.499 4.066-1.483 1.047-0.997 1.578-2.349 1.578-4.020-0-0.645-0.022-1.281-0.065-1.89zM26.451 29.158c-0.683 0.65-1.591 0.967-2.774 0.967h-15.408c-1.183 0-2.091-0.316-2.774-0.966-0.67-0.638-0.996-1.509-0.996-2.662 0-0.6 0.020-1.192 0.059-1.76 0.039-0.558 0.117-1.17 0.234-1.821 0.115-0.643 0.262-1.246 0.437-1.792 0.168-0.524 0.396-1.042 0.68-1.542 0.271-0.476 0.582-0.885 0.926-1.214 0.322-0.308 0.727-0.56 1.204-0.749 0.442-0.175 0.938-0.27 1.477-0.285 0.066 0.035 0.183 0.102 0.372 0.225 0.386 0.251 0.83 0.538 1.321 0.852 0.554 0.353 1.267 0.672 2.119 0.947 0.871 0.282 1.76 0.425 2.642 0.425s1.771-0.143 2.642-0.425c0.853-0.276 1.566-0.594 2.121-0.948 0.503-0.321 0.935-0.6 1.32-0.851 0.189-0.123 0.306-0.19 0.372-0.225 0.539 0.014 1.035 0.11 1.477 0.285 0.477 0.189 0.883 0.441 1.204 0.749 0.344 0.329 0.655 0.737 0.926 1.214 0.284 0.499 0.513 1.018 0.68 1.541 0.175 0.547 0.322 1.15 0.438 1.792 0.117 0.652 0.196 1.265 0.234 1.822v0c0.040 0.566 0.060 1.158 0.060 1.759-0 1.153-0.326 2.024-0.996 2.661z"></path>
</symbol>
<symbol id="icon-ukraine" viewBox="0 0 32 32">
<path fill="#ffda44" style="fill: var(--color1, #ffda44)" d="M0 5.334h32v21.333h-32v-21.333z"></path>
<path fill="#338af3" style="fill: var(--color2, #338af3)" d="M0 5.334h32v10.666h-32v-10.666z"></path>
</symbol>
<symbol id="icon-united-kingdom" viewBox="0 0 32 32">
<path fill="#f0f0f0" style="fill: var(--color3, #f0f0f0)" d="M0 5.333h32v21.334h-32v-21.334z"></path>
<path fill="#d80027" style="fill: var(--color4, #d80027)" d="M18 5.333h-4v8.667h-14v4h14v8.667h4v-8.667h14v-4h-14z"></path>
<path fill="#0052b4" style="fill: var(--color5, #0052b4)" d="M24.612 19.71l7.388 4.105v-4.105z"></path>
<path fill="#0052b4" style="fill: var(--color5, #0052b4)" d="M19.478 19.71l12.522 6.957v-1.967l-8.981-4.989z"></path>
<path fill="#0052b4" style="fill: var(--color5, #0052b4)" d="M28.665 26.666l-9.186-5.104v5.104z"></path>
<path fill="#f0f0f0" style="fill: var(--color3, #f0f0f0)" d="M19.478 19.71l12.522 6.957v-1.967l-8.981-4.989z"></path>
<path fill="#d80027" style="fill: var(--color4, #d80027)" d="M19.478 19.71l12.522 6.957v-1.967l-8.981-4.989z"></path>
<path fill="#0052b4" style="fill: var(--color5, #0052b4)" d="M5.646 19.71l-5.646 3.137v-3.137z"></path>
<path fill="#0052b4" style="fill: var(--color5, #0052b4)" d="M12.522 20.594v6.072h-10.929z"></path>
<path fill="#d80027" style="fill: var(--color4, #d80027)" d="M8.981 19.71l-8.981 4.989v1.967l12.522-6.957z"></path>
<path fill="#0052b4" style="fill: var(--color5, #0052b4)" d="M7.388 12.29l-7.388-4.105v4.105z"></path>
<path fill="#0052b4" style="fill: var(--color5, #0052b4)" d="M12.522 12.29l-12.522-6.957v1.967l8.981 4.989z"></path>
<path fill="#0052b4" style="fill: var(--color5, #0052b4)" d="M3.335 5.333l9.186 5.104v-5.104z"></path>
<path fill="#f0f0f0" style="fill: var(--color3, #f0f0f0)" d="M12.522 12.29l-12.522-6.957v1.967l8.981 4.989z"></path>
<path fill="#d80027" style="fill: var(--color4, #d80027)" d="M12.522 12.29l-12.522-6.957v1.967l8.981 4.989z"></path>
<path fill="#0052b4" style="fill: var(--color5, #0052b4)" d="M26.354 12.29l5.646-3.137v3.137z"></path>
<path fill="#0052b4" style="fill: var(--color5, #0052b4)" d="M19.478 11.405v-6.072h10.929z"></path>
<path fill="#d80027" style="fill: var(--color4, #d80027)" d="M23.019 12.29l8.981-4.989v-1.967l-12.522 6.957z"></path>
</symbol>

<symbol id="icon-at" viewBox="0 0 32 32">
<path d="M23.218 30.345c-2.759 1.241-5.149 1.655-8.414 1.655-7.632 0-14.345-5.471-14.345-14.483 0-9.38 6.804-17.517 17.196-17.517 8.092 0 13.885 5.564 13.885 13.287 0 6.713-3.77 10.943-8.736 10.943-2.161 0-3.724-1.104-3.954-3.541h-0.092c-1.425 2.345-3.494 3.541-5.931 3.541-2.989 0-5.149-2.207-5.149-5.977 0-5.609 4.138-10.713 10.758-10.713 2.023 0 4.322 0.506 5.471 1.149l-1.379 8.506c-0.459 2.712-0.138 3.954 1.149 4 1.977 0.046 4.459-2.483 4.459-7.77 0-5.977-3.862-10.621-10.989-10.621-7.034 0-13.195 5.518-13.195 14.299 0 7.678 4.919 12.046 11.771 12.046 2.345 0 4.828-0.506 6.667-1.471l0.828 2.668zM19.127 11.357c-0.368-0.092-0.828-0.184-1.425-0.184-3.034 0-5.425 2.989-5.425 6.528 0 1.747 0.782 2.851 2.299 2.851 1.701 0 3.494-2.161 3.908-4.828l0.644-4.367z"></path>
</symbol>
<symbol id="icon-key" viewBox="0 0 32 32">
<path d="M28.984 3.016c-4.021-4.021-10.563-4.021-14.584 0-2.747 2.747-3.701 6.794-2.511 10.466l-11.614 11.614c-0.176 0.176-0.275 0.414-0.275 0.663v5.304c0 0.518 0.419 0.937 0.938 0.937h5.304c0.249 0 0.487-0.099 0.663-0.275l1.326-1.327c0.202-0.202 0.301-0.486 0.268-0.771l-0.165-1.425 1.974-0.186c0.449-0.042 0.803-0.396 0.845-0.845l0.186-1.974 1.425 0.166c0.265 0.036 0.531-0.053 0.732-0.231s0.314-0.433 0.314-0.7v-1.746h1.714c0.249 0 0.487-0.099 0.663-0.275l2.404-2.372c3.671 1.19 7.649 0.308 10.395-2.44 4.021-4.021 4.021-10.563 0-14.584zM26.332 9.645c-1.097 1.097-2.88 1.097-3.977 0s-1.097-2.88 0-3.977 2.88-1.097 3.977 0 1.097 2.88 0 3.977z"></path>
</symbol>
<symbol id="icon-login" viewBox="0 0 32 32">
<path d="M23.333 17.333c-0.368 0-0.667 0.299-0.667 0.667v6.667c0 1.103-0.897 2-2 2h-6v-20.541c0-1.153-0.685-2.192-1.745-2.645l-5.008-2.147h12.753c1.103 0 2 0.897 2 2v6.667c0 0.368 0.299 0.667 0.667 0.667s0.667-0.299 0.667-0.667v-6.667c0-1.837-1.496-3.333-3.333-3.333h-16c-0.053 0-0.101 0.019-0.152 0.031-0.1-0.011-0.2-0.031-0.303-0.031-1.587 0-2.879 1.292-2.879 2.879v22.996c0 1.153 0.685 2.192 1.745 2.645l7.573 3.247c0.36 0.155 0.743 0.233 1.136 0.233 1.587 0 2.879-1.292 2.879-2.879v-1.121h6c1.837 0 3.333-1.496 3.333-3.333v-6.667c0-0.368-0.299-0.667-0.667-0.667zM13.333 29.121c0 0.852-0.693 1.545-1.545 1.545-0.211 0-0.416-0.041-0.609-0.124l-7.575-3.247c-0.569-0.244-0.937-0.803-0.937-1.421v-22.996c0-0.852 0.693-1.545 1.545-1.545 0.211 0 0.416 0.041 0.609 0.125l7.575 3.245c0.569 0.244 0.937 0.803 0.937 1.421v22.996z"></path>
<path d="M11.333 14.667c-0.368 0-0.667 0.299-0.667 0.667v2.667c0 0.368 0.299 0.667 0.667 0.667s0.667-0.299 0.667-0.667v-2.667c0-0.368-0.299-0.667-0.667-0.667z"></path>
<path d="M30.631 13.824c-0.007-0.024-0.005-0.051-0.015-0.075-0.035-0.087-0.087-0.163-0.153-0.227l-3.992-3.992c-0.26-0.26-0.683-0.26-0.943 0s-0.26 0.683 0 0.943l2.86 2.86h-11.721c-0.368 0-0.667 0.299-0.667 0.667s0.299 0.667 0.667 0.667h11.724l-2.863 2.863c-0.26 0.26-0.26 0.683 0 0.943 0.131 0.129 0.301 0.195 0.472 0.195s0.341-0.065 0.471-0.193l4-4c0.019-0.019 0.025-0.043 0.041-0.061 0.039-0.048 0.079-0.097 0.103-0.156 0.024-0.057 0.029-0.119 0.036-0.179 0.004-0.027 0.016-0.051 0.016-0.077 0-0.063-0.020-0.119-0.036-0.176z"></path>
</symbol>
<symbol id="icon-password" viewBox="0 0 32 32">
<path d="M29.838 16.553h-10.123c-0.239 0-0.432-0.194-0.432-0.432s0.194-0.432 0.432-0.432v0h10.123c0.239 0 0.432-0.194 0.432-0.432v0-7.784c0-0.239-0.194-0.432-0.432-0.432v0h-8.026c-0.239 0-0.432-0.194-0.432-0.432s0.194-0.432 0.432-0.432v0h8.026c0.716 0 1.297 0.581 1.297 1.297v0 7.784c0 0.716-0.581 1.297-1.297 1.297v0z"></path>
<path d="M14.473 7.040h-1.258c-0.239 0-0.432-0.194-0.432-0.432s0.194-0.432 0.432-0.432v0h1.258c0.239 0 0.432 0.194 0.432 0.432s-0.194 0.432-0.432 0.432v0z"></path>
<path d="M12.285 16.553h-10.123c-0.716 0-1.297-0.581-1.297-1.297v0-7.784c0-0.716 0.581-1.297 1.297-1.297v0h8.026c0.239 0 0.432 0.194 0.432 0.432s-0.194 0.432-0.432 0.432v0h-8.026c-0.239 0-0.432 0.194-0.432 0.432v0 7.784c0 0.239 0.194 0.432 0.432 0.432v0h10.123c0.239 0 0.432 0.194 0.432 0.432s-0.194 0.432-0.432 0.432v0z"></path>
<path d="M18.785 7.040h-1.284c-0.239 0-0.432-0.194-0.432-0.432s0.194-0.432 0.432-0.432v0h1.284c0.239 0 0.432 0.194 0.432 0.432s-0.194 0.432-0.432 0.432v0z"></path>
<path d="M24.989 12.672c-0 0-0 0-0 0-0.239 0-0.432-0.194-0.432-0.432 0-0.137 0.064-0.26 0.164-0.339l0.001-0.001 2.226-1.751c0.073-0.058 0.166-0.093 0.267-0.093 0.239 0 0.433 0.194 0.433 0.432 0 0.137-0.064 0.26-0.164 0.339l-0.001 0.001-2.227 1.751c-0.073 0.058-0.166 0.092-0.267 0.093h-0z"></path>
<path d="M27.215 12.672c-0.101-0-0.194-0.035-0.268-0.093l0.001 0.001-2.226-1.751c-0.098-0.080-0.16-0.2-0.16-0.335 0-0.239 0.194-0.432 0.432-0.432 0.099 0 0.19 0.033 0.263 0.089l-0.001-0.001 2.227 1.751c0.101 0.080 0.165 0.202 0.165 0.34 0 0.239-0.194 0.432-0.432 0.432-0 0-0 0-0 0h0z"></path>
<path d="M26.102 13.216c-0.239 0-0.432-0.194-0.432-0.432v0-2.838c0-0.239 0.194-0.432 0.432-0.432s0.432 0.194 0.432 0.432v0 2.838c-0 0.239-0.194 0.432-0.432 0.432v0z"></path>
<path d="M18.254 12.672c-0.239-0-0.432-0.194-0.432-0.432 0-0.137 0.064-0.26 0.164-0.339l0.001-0.001 2.226-1.751c0.072-0.055 0.163-0.088 0.262-0.088 0.239 0 0.432 0.194 0.432 0.432 0 0.135-0.062 0.255-0.159 0.335l-0.001 0.001-2.226 1.751c-0.073 0.058-0.166 0.093-0.267 0.093v0z"></path>
<path d="M20.48 12.672c-0.101-0-0.194-0.035-0.268-0.093l0.001 0.001-2.224-1.751c-0.098-0.080-0.16-0.2-0.16-0.335 0-0.239 0.194-0.432 0.432-0.432 0.099 0 0.19 0.033 0.263 0.089l-0.001-0.001 2.226 1.751c0.101 0.080 0.165 0.202 0.165 0.34 0 0.239-0.194 0.432-0.432 0.432v0z"></path>
<path d="M19.367 13.216c-0.239 0-0.432-0.194-0.432-0.432v0-2.838c0-0.239 0.194-0.432 0.432-0.432s0.432 0.194 0.432 0.432v0 2.838c-0 0.239-0.194 0.432-0.432 0.432v0z"></path>
<path d="M11.52 12.672c-0.239-0-0.432-0.194-0.432-0.432 0-0.137 0.064-0.26 0.164-0.339l0.001-0.001 2.226-1.751c0.074-0.060 0.169-0.097 0.273-0.097 0.239 0 0.432 0.194 0.432 0.432 0 0.14-0.067 0.265-0.17 0.344l-0.001 0.001-2.226 1.751c-0.073 0.058-0.166 0.093-0.267 0.093v0z"></path>
<path d="M13.746 12.672c-0.101-0-0.194-0.035-0.268-0.093l0.001 0.001-2.226-1.751c-0.098-0.080-0.159-0.2-0.159-0.335 0-0.239 0.194-0.432 0.432-0.432 0.099 0 0.19 0.033 0.263 0.089l-0.001-0.001 2.226 1.751c0.101 0.080 0.165 0.202 0.165 0.34 0 0.239-0.194 0.432-0.432 0.432v0z"></path>
<path d="M12.633 13.216c-0.239 0-0.432-0.194-0.432-0.432v0-2.838c0-0.239 0.194-0.432 0.432-0.432s0.432 0.194 0.432 0.432v0 2.838c-0 0.239-0.194 0.432-0.432 0.432v0z"></path>
<path d="M4.785 12.672c-0 0-0 0-0 0-0.239 0-0.432-0.194-0.432-0.432 0-0.137 0.064-0.26 0.164-0.339l0.001-0.001 2.229-1.751c0.072-0.055 0.163-0.088 0.262-0.088 0.239 0 0.432 0.194 0.432 0.432 0 0.135-0.062 0.255-0.159 0.335l-0.001 0.001-2.226 1.751c-0.073 0.058-0.166 0.093-0.267 0.093-0.001 0-0.001 0-0.002 0h0z"></path>
<path d="M7.011 12.672c-0.101-0-0.194-0.035-0.268-0.093l0.001 0.001-2.227-1.751c-0.101-0.080-0.165-0.202-0.165-0.34 0-0.239 0.194-0.432 0.433-0.432 0.101 0 0.195 0.035 0.268 0.093l-0.001-0.001 2.226 1.751c0.101 0.080 0.165 0.202 0.165 0.34 0 0.239-0.194 0.432-0.432 0.432-0 0-0 0-0 0h0z"></path>
<path d="M5.898 13.216c-0.239 0-0.432-0.194-0.432-0.432v0-2.838c0-0.239 0.194-0.432 0.432-0.432s0.432 0.194 0.432 0.432v0 2.838c-0 0.239-0.194 0.432-0.432 0.432v0z"></path>
<path d="M16 25.824c-3.209 0-5.811-2.602-5.811-5.811s2.602-5.811 5.811-5.811c3.209 0 5.811 2.602 5.811 5.811v0c-0.004 3.208-2.603 5.807-5.811 5.811h-0zM16 15.068c-2.732 0-4.946 2.214-4.946 4.946s2.214 4.946 4.946 4.946c2.732 0 4.946-2.214 4.946-4.946 0-0 0-0 0-0v0c-0.003-2.73-2.216-4.943-4.946-4.946h-0z"></path>
<path d="M15 22.163c-0.119-0-0.227-0.048-0.306-0.127l-1.435-1.435c-0.075-0.078-0.121-0.184-0.121-0.3 0-0.239 0.194-0.432 0.432-0.432 0.117 0 0.223 0.046 0.301 0.122l1.129 1.129 3.129-3.13c0.078-0.075 0.184-0.121 0.3-0.121 0.239 0 0.432 0.194 0.432 0.432 0 0.117-0.046 0.223-0.122 0.301l-3.433 3.436c-0.078 0.078-0.186 0.127-0.306 0.127-0.001 0-0.001 0-0.002 0h0z"></path>
</symbol>
<symbol id="icon-smartphone" viewBox="0 0 32 32">
<path d="M18.667 1.6h-5.333c-0.294 0-0.533 0.239-0.533 0.533s0.239 0.533 0.533 0.533h5.333c0.294 0 0.533-0.239 0.533-0.533s-0.239-0.533-0.533-0.533z"></path>
<path d="M22.4 1.6h-0.533c-0.294 0-0.533 0.239-0.533 0.533s0.239 0.533 0.533 0.533h0.533c0.294 0 0.533-0.239 0.533-0.533s-0.239-0.533-0.533-0.533z"></path>
<path d="M16.662 27.2h-1.324c-0.811 0-1.471 0.66-1.471 1.471v0.258c0 0.811 0.66 1.471 1.471 1.471h1.324c0.811 0 1.471-0.66 1.471-1.471v-0.258c0-0.811-0.66-1.471-1.471-1.471zM17.067 28.929c0 0.223-0.181 0.404-0.404 0.404h-1.324c-0.223 0-0.405-0.181-0.405-0.404v-0.258c0-0.223 0.181-0.405 0.405-0.405h1.324c0.224 0 0.405 0.181 0.405 0.405v0.258z"></path>
<path d="M23.139 0h-14.278c-1.063 0-1.928 0.865-1.928 1.928v28.144c0 1.063 0.865 1.928 1.928 1.928h14.277c1.063 0 1.928-0.865 1.928-1.927v-28.145c0-1.063-0.865-1.928-1.927-1.928zM24 30.072c0 0.475-0.386 0.861-0.861 0.861h-14.278c-0.475 0-0.861-0.387-0.861-0.861v-28.145c0-0.475 0.386-0.861 0.861-0.861h14.277c0.475 0 0.861 0.387 0.861 0.861v28.144z"></path>
<path d="M24.533 3.2h-17.067c-0.294 0-0.533 0.239-0.533 0.533v22.4c0 0.294 0.239 0.533 0.533 0.533h17.067c0.294 0 0.533-0.239 0.533-0.533v-22.4c0-0.294-0.239-0.533-0.533-0.533zM24 25.6h-16v-21.333h16v21.333z"></path>
</symbol>
<symbol id="icon-translation" viewBox="0 0 32 32">
<path d="M12.962 17.503c0-0.259-0.21-0.469-0.469-0.469h-10.521c-0.57 0-1.034-0.464-1.034-1.034v-14.028c0-0.57 0.464-1.034 1.034-1.034h14.028c0.57 0 1.034 0.464 1.034 1.034v10.521c0 0.259 0.21 0.469 0.469 0.469s0.469-0.21 0.469-0.469v-10.521c0-1.087-0.884-1.972-1.972-1.972h-14.028c-1.087 0-1.972 0.884-1.972 1.972v14.028c0 1.087 0.884 1.972 1.972 1.972h10.521c0.259 0 0.469-0.21 0.469-0.469z"></path>
<path d="M30.028 14.028h-4.008c-0.259 0-0.469 0.21-0.469 0.469s0.21 0.469 0.469 0.469h4.008c0.57 0 1.034 0.464 1.034 1.034v14.028c0 0.57-0.464 1.034-1.034 1.034h-14.028c-0.57 0-1.034-0.464-1.034-1.034v-14.028c0-0.57 0.464-1.034 1.034-1.034h8.016c0.259 0 0.469-0.21 0.469-0.469s-0.21-0.469-0.469-0.469h-8.016c-1.087 0-1.972 0.884-1.972 1.972v14.028c0 1.087 0.884 1.972 1.972 1.972h14.028c1.087 0 1.972-0.884 1.972-1.972v-14.028c0-1.087-0.884-1.972-1.972-1.972z"></path>
<path d="M13.495 5.010h-4.040v-0.533c0-0.259-0.21-0.469-0.469-0.469s-0.469 0.21-0.469 0.469v0.533h-4.040c-0.259 0-0.469 0.21-0.469 0.469s0.21 0.469 0.469 0.469h6.903c-0.27 0.867-0.946 2.616-2.396 4.361-0.885-1.065-1.485-2.135-1.882-3.020-0.106-0.236-0.383-0.342-0.62-0.236s-0.342 0.383-0.236 0.62c0.439 0.977 1.108 2.166 2.106 3.342-0.711 0.738-1.573 1.454-2.613 2.078-0.222 0.133-0.294 0.421-0.161 0.643 0.088 0.146 0.243 0.228 0.402 0.228 0.082 0 0.165-0.022 0.241-0.067 1.103-0.662 2.014-1.419 2.763-2.188 0.757 0.777 1.669 1.529 2.767 2.188 0.075 0.045 0.159 0.067 0.241 0.067 0.159 0 0.315-0.081 0.402-0.228 0.133-0.222 0.061-0.51-0.161-0.643-1.042-0.625-1.905-1.34-2.617-2.079 0.737-0.867 1.277-1.718 1.662-2.432 0.622-1.156 0.94-2.127 1.081-2.634h1.137c0.259 0 0.469-0.21 0.469-0.469s-0.21-0.469-0.469-0.469z"></path>
<path d="M23.652 18.453c-0.104-0.253-0.349-0.417-0.623-0.417-0 0-0 0-0.001 0-0.274 0-0.519 0.164-0.622 0.418-0.001 0.003-0.003 0.007-0.004 0.011l-3.386 8.891c-0.092 0.242 0.029 0.513 0.271 0.605 0.055 0.021 0.111 0.031 0.167 0.031 0.189 0 0.367-0.115 0.438-0.302l0.728-1.912h4.794l0.721 1.911c0.091 0.242 0.362 0.364 0.604 0.273s0.364-0.362 0.273-0.604l-3.355-8.892c-0.002-0.004-0.003-0.008-0.005-0.013zM20.978 24.84l2.051-5.385 2.032 5.385z"></path>
<path d="M12.774 25.645l-2.004-1.503c-0.207-0.155-0.501-0.113-0.656 0.094s-0.113 0.501 0.094 0.656l0.879 0.659h-1.6c-1.675 0-3.038-1.363-3.038-3.038v-3.006c0-0.259-0.21-0.469-0.469-0.469s-0.469 0.21-0.469 0.469v3.006c0 2.192 1.784 3.976 3.976 3.976h1.6l-0.879 0.659c-0.207 0.155-0.249 0.449-0.094 0.656 0.092 0.123 0.233 0.188 0.375 0.188 0.098 0 0.197-0.031 0.281-0.094l2.004-1.503c0.118-0.089 0.188-0.227 0.188-0.375s-0.069-0.287-0.188-0.375z"></path>
<path d="M19.226 6.355l2.004 1.503c0.084 0.063 0.183 0.094 0.281 0.094 0.142 0 0.283-0.065 0.375-0.188 0.155-0.207 0.113-0.501-0.094-0.656l-0.879-0.659h1.6c1.675 0 3.038 1.363 3.038 3.038v3.006c0 0.259 0.21 0.469 0.469 0.469s0.469-0.21 0.469-0.469v-3.006c0-2.192-1.784-3.976-3.976-3.976h-1.6l0.879-0.659c0.207-0.155 0.249-0.449 0.094-0.656s-0.449-0.249-0.656-0.094l-2.004 1.503c-0.118 0.089-0.188 0.227-0.188 0.375s0.069 0.287 0.188 0.375z"></path>
</symbol>
<symbol id="icon-user" viewBox="0 0 32 32">
<path d="M15.772 15.415c2.118 0 3.951-0.76 5.45-2.258s2.258-3.332 2.258-5.449c0-2.117-0.76-3.951-2.258-5.449s-3.332-2.258-5.449-2.258c-2.118 0-3.951 0.76-5.449 2.258s-2.258 3.332-2.258 5.449c0 2.118 0.76 3.951 2.258 5.45s3.332 2.258 5.449 2.258z"></path>
<path d="M29.258 24.606c-0.043-0.624-0.131-1.304-0.259-2.022-0.13-0.724-0.297-1.408-0.497-2.033-0.207-0.646-0.488-1.284-0.836-1.896-0.361-0.635-0.785-1.188-1.26-1.642-0.497-0.476-1.106-0.858-1.81-1.137-0.702-0.278-1.479-0.418-2.311-0.418-0.327 0-0.643 0.134-1.253 0.531-0.375 0.245-0.815 0.528-1.305 0.841-0.419 0.267-0.987 0.517-1.688 0.744-0.684 0.221-1.379 0.334-2.065 0.334s-1.38-0.112-2.065-0.334c-0.701-0.226-1.269-0.477-1.687-0.744-0.486-0.31-0.925-0.593-1.306-0.842-0.609-0.397-0.926-0.531-1.252-0.531-0.832 0-1.609 0.141-2.311 0.419-0.704 0.279-1.313 0.661-1.811 1.137-0.475 0.455-0.899 1.008-1.26 1.642-0.347 0.612-0.629 1.25-0.836 1.896-0.2 0.625-0.367 1.309-0.497 2.033-0.129 0.717-0.216 1.398-0.259 2.023-0.042 0.612-0.064 1.248-0.064 1.89 0 1.67 0.531 3.023 1.578 4.020 1.034 0.984 2.403 1.483 4.067 1.483h15.408c1.664 0 3.032-0.499 4.066-1.483 1.047-0.997 1.578-2.349 1.578-4.020-0-0.645-0.022-1.281-0.065-1.89z"></path>
</symbol>
<symbol id="icon-user-data" viewBox="0 0 32 32">
<path d="M29.375 5.22l-5.22-5.22h-15.53v19.261c-3.341 0.195-6 2.974-6 6.364 0 3.515 2.86 6.375 6.375 6.375 2.38 0 4.46-1.312 5.555-3.25h14.82zM24.375 1.28l3.72 3.72h-3.72zM5.682 30.164c0.574-1.307 1.866-2.164 3.318-2.164s2.744 0.857 3.318 2.164c-0.931 0.682-2.078 1.086-3.318 1.086s-2.387-0.404-3.318-1.086zM7.375 25.625c0-0.896 0.729-1.625 1.625-1.625s1.625 0.729 1.625 1.625-0.729 1.625-1.625 1.625-1.625-0.729-1.625-1.625zM12.912 29.663c-0.511-1.022-1.396-1.792-2.455-2.165 0.558-0.435 0.918-1.113 0.918-1.874 0-1.31-1.065-2.375-2.375-2.375s-2.375 1.065-2.375 2.375c0 0.761 0.36 1.439 0.918 1.874-1.058 0.372-1.944 1.142-2.455 2.165-1.056-1.023-1.713-2.455-1.713-4.038 0-3.102 2.523-5.625 5.625-5.625s5.625 2.523 5.625 5.625c0 1.583-0.658 3.015-1.713 4.038zM14.916 28c0.296-0.734 0.459-1.536 0.459-2.375 0-3.389-2.659-6.169-6-6.364v-18.511h14.25v5h5v22.25z"></path>
<path d="M12 4h10v0.75h-10z"></path>
<path d="M12 6h8v0.75h-8z"></path>
<path d="M11.625 11.75h2.75v-2.75h-2.75zM12.375 9.75h1.25v1.25h-1.25z"></path>
<path d="M16 11h8v0.75h-8z"></path>
<path d="M16 9h10v0.75h-10z"></path>
<path d="M11.625 16.75h2.75v-2.75h-2.75zM12.375 14.75h1.25v1.25h-1.25z"></path>
<path d="M16 16h8v0.75h-8z"></path>
<path d="M16 14h10v0.75h-10z"></path>
<path d="M16 21h8v0.75h-8z"></path>
<path d="M16 19h10v0.75h-10z"></path>
</symbol>












<symbol id="icon-add" viewBox="0 0 32 32">
<path d="M30.667 14.667h-13.333v-13.333c0-0.736-0.597-1.333-1.333-1.333s-1.333 0.597-1.333 1.333v13.333h-13.333c-0.736-0-1.333 0.597-1.333 1.333s0.597 1.333 1.333 1.333h13.333v13.333c0 0.736 0.597 1.333 1.333 1.333s1.333-0.597 1.333-1.333v-13.333h13.333c0.736 0 1.333-0.597 1.333-1.333s-0.597-1.333-1.334-1.333z"></path>
</symbol>
<symbol id="icon-alarm-clock" viewBox="0 0 32 32">
<path d="M30.595 1.405c-1.878-1.865-4.91-1.865-6.788 0-0.050 0.050-0.090 0.11-0.116 0.175-0.023 0.059-0.036 0.121-0.037 0.184-0.002 0.006-0.003 0.012-0.004 0.018 0 0.070 0.014 0.139 0.041 0.203s0.066 0.125 0.116 0.174l2.641 2.641-1.021 1.021c-2.558-2.365-5.913-3.678-9.397-3.679-0.009-0.003-0.016-0.007-0.025-0.007s-0.016 0.005-0.025 0.005c-3.484 0.001-6.839 1.316-9.397 3.682l-1.021-1.021 2.641-2.641c0.050-0.050 0.089-0.109 0.116-0.174 0.027-0.064 0.040-0.133 0.041-0.203 0-0.006-0.003-0.012-0.004-0.018 0-0.123-0.047-0.241-0.133-0.329-0.008-0.009-0.011-0.020-0.019-0.029-1.875-1.875-4.915-1.875-6.79-0.001s-1.875 4.915-0.001 6.79c0.007 0.008 0.018 0.010 0.026 0.018 0.043 0.041 0.094 0.074 0.148 0.098 0.058 0.023 0.12 0.035 0.182 0.037 0.006 0 0.013 0.004 0.020 0.004 0.069-0 0.138-0.014 0.203-0.040s0.124-0.066 0.174-0.116l2.642-2.64 1.021 1.021c-5.199 5.62-4.858 14.391 0.763 19.59 0.48 0.444 0.992 0.854 1.53 1.226l-3.691 3.691c-0.212 0.205-0.218 0.542-0.013 0.754s0.542 0.218 0.754 0.013c0.004-0.004 0.009-0.009 0.013-0.013l3.859-3.859c4.302 2.51 9.621 2.51 13.922 0l3.859 3.859c0.212 0.205 0.549 0.199 0.754-0.013 0.2-0.207 0.2-0.534 0-0.741l-3.691-3.691c6.298-4.357 7.872-12.994 3.515-19.292-0.371-0.536-0.779-1.046-1.222-1.525l1.022-1.021 2.641 2.641c0.050 0.050 0.109 0.089 0.174 0.116s0.133 0.040 0.203 0.040c0.007 0 0.013-0.004 0.020-0.004 0.062-0.001 0.124-0.014 0.182-0.037 0.055-0.024 0.105-0.057 0.148-0.098 0.008-0.007 0.019-0.010 0.026-0.018 1.865-1.878 1.863-4.911 0-6.791zM1.818 7.037c-1.23-1.656-0.884-3.996 0.773-5.225 1.322-0.981 3.131-0.981 4.453 0l-5.225 5.225zM28.778 15.465h-2.643c-0.294 0-0.533 0.239-0.533 0.533s0.239 0.533 0.533 0.533h2.653c-0.285 6.644-5.606 11.965-12.25 12.25v-2.653c0-0.294-0.239-0.533-0.533-0.533s-0.533 0.239-0.533 0.533v2.653c-6.644-0.285-11.965-5.606-12.25-12.25h2.653c0.294 0 0.533-0.239 0.533-0.533s-0.239-0.533-0.533-0.533h-2.643c0.121-3.197 1.441-6.23 3.697-8.498 0.009-0.007 0.019-0.010 0.027-0.018s0.011-0.019 0.018-0.027c2.267-2.257 5.302-3.576 8.498-3.697v2.643c0 0.294 0.239 0.533 0.533 0.533s0.533-0.239 0.533-0.533v-2.643c3.197 0.12 6.231 1.44 8.498 3.697 0.007 0.009 0.010 0.019 0.018 0.027s0.019 0.011 0.027 0.018c2.256 2.268 3.575 5.302 3.697 8.498zM30.19 7.036l-5.225-5.225c1.649-1.237 3.988-0.903 5.225 0.746 0.995 1.327 0.995 3.152 0 4.479z"></path>
<path d="M23.587 11.004h0.001l-6.064 3.501c-0.819-0.839-2.163-0.856-3.002-0.037-0.012 0.012-0.025 0.024-0.037 0.037l-3.293-1.901c-0.254-0.149-0.581-0.064-0.73 0.19s-0.064 0.581 0.19 0.73c0.002 0.001 0.004 0.002 0.006 0.004l3.299 1.905c-0.331 1.13 0.317 2.315 1.448 2.646s2.315-0.317 2.646-1.448c0.114-0.391 0.114-0.807 0-1.198l6.070-3.504c0.254-0.149 0.339-0.476 0.19-0.73-0.148-0.252-0.47-0.338-0.724-0.194zM16.004 17.064c-0.589 0-1.066-0.477-1.066-1.066s0.477-1.066 1.066-1.066 1.066 0.477 1.066 1.066-0.477 1.066-1.066 1.066z"></path>
</symbol>
<symbol id="icon-calendar_color" viewBox="0 0 32 32">
<path fill="#d8ecfe" style="fill: var(--color1, #d8ecfe)" d="M30.036 32h-28.072c-0.782 0-1.417-0.634-1.417-1.416v-19.069h30.905v19.069c-0 0.782-0.634 1.416-1.417 1.416z"></path>
<path fill="#7a8c98" style="fill: var(--color2, #7a8c98)" d="M13.573 17.655h-2.447c-0.284 0-0.515-0.231-0.515-0.515v-2.447c0-0.284 0.231-0.515 0.515-0.515h2.447c0.284 0 0.515 0.231 0.515 0.515v2.447c0 0.284-0.231 0.515-0.515 0.515z"></path>
<path fill="#7a8c98" style="fill: var(--color2, #7a8c98)" d="M20.874 17.655h-2.447c-0.285 0-0.515-0.231-0.515-0.515v-2.447c0-0.284 0.231-0.515 0.515-0.515h2.447c0.285 0 0.515 0.231 0.515 0.515v2.447c0 0.284-0.231 0.515-0.515 0.515z"></path>
<path fill="#7a8c98" style="fill: var(--color2, #7a8c98)" d="M28.174 17.655h-2.447c-0.285 0-0.515-0.231-0.515-0.515v-2.447c0-0.284 0.231-0.515 0.515-0.515h2.447c0.285 0 0.515 0.231 0.515 0.515v2.447c0 0.284-0.231 0.515-0.515 0.515z"></path>
<path fill="#7a8c98" style="fill: var(--color2, #7a8c98)" d="M13.573 23.496h-2.447c-0.284 0-0.515-0.231-0.515-0.515v-2.447c0-0.285 0.231-0.515 0.515-0.515h2.447c0.284 0 0.515 0.231 0.515 0.515v2.447c0 0.284-0.231 0.515-0.515 0.515z"></path>
<path fill="#7a8c98" style="fill: var(--color2, #7a8c98)" d="M20.874 23.496h-2.447c-0.285 0-0.515-0.231-0.515-0.515v-2.447c0-0.285 0.231-0.515 0.515-0.515h2.447c0.285 0 0.515 0.231 0.515 0.515v2.447c0 0.284-0.231 0.515-0.515 0.515z"></path>
<path fill="#7a8c98" style="fill: var(--color2, #7a8c98)" d="M28.174 23.496h-2.447c-0.285 0-0.515-0.231-0.515-0.515v-2.447c0-0.285 0.231-0.515 0.515-0.515h2.447c0.285 0 0.515 0.231 0.515 0.515v2.447c0 0.284-0.231 0.515-0.515 0.515z"></path>
<path fill="#7a8c98" style="fill: var(--color2, #7a8c98)" d="M6.273 23.496h-2.447c-0.284 0-0.515-0.231-0.515-0.515v-2.447c0-0.285 0.231-0.515 0.515-0.515h2.447c0.284 0 0.515 0.231 0.515 0.515v2.447c0 0.284-0.231 0.515-0.515 0.515z"></path>
<path fill="#7a8c98" style="fill: var(--color2, #7a8c98)" d="M13.573 29.336h-2.447c-0.284 0-0.515-0.231-0.515-0.515v-2.447c0-0.285 0.231-0.515 0.515-0.515h2.447c0.284 0 0.515 0.231 0.515 0.515v2.447c0 0.284-0.231 0.515-0.515 0.515z"></path>
<path fill="#7a8c98" style="fill: var(--color2, #7a8c98)" d="M20.874 29.336h-2.447c-0.285 0-0.515-0.231-0.515-0.515v-2.447c0-0.285 0.231-0.515 0.515-0.515h2.447c0.285 0 0.515 0.231 0.515 0.515v2.447c0 0.284-0.231 0.515-0.515 0.515z"></path>
<path fill="#7a8c98" style="fill: var(--color2, #7a8c98)" d="M6.273 29.336h-2.447c-0.284 0-0.515-0.231-0.515-0.515v-2.447c0-0.285 0.231-0.515 0.515-0.515h2.447c0.284 0 0.515 0.231 0.515 0.515v2.447c0 0.284-0.231 0.515-0.515 0.515z"></path>
<path fill="#c4e2ff" style="fill: var(--color3, #c4e2ff)" d="M28.689 11.514v19.069c0 0.782-0.634 1.416-1.416 1.416h2.764c0.782 0 1.416-0.634 1.416-1.416v-19.069z"></path>
<path fill="#fe646f" style="fill: var(--color4, #fe646f)" d="M31.453 11.514h-30.905v-6.377c0-0.782 0.634-1.417 1.417-1.417h28.072c0.782 0 1.416 0.634 1.416 1.417v6.377z"></path>
<path fill="#fd4755" style="fill: var(--color5, #fd4755)" d="M30.036 3.721h-2.764c0.782 0 1.416 0.634 1.416 1.417v6.377h2.764v-6.377c0-0.782-0.634-1.417-1.416-1.417z"></path>
<path fill="#f9b1b1" style="fill: var(--color6, #f9b1b1)" d="M12.414 7.442c-0.822 0-1.488-0.666-1.488-1.488v-4.465c0-0.822 0.666-1.488 1.488-1.488s1.488 0.666 1.488 1.488v4.465c0 0.822-0.666 1.488-1.488 1.488z"></path>
<path fill="#f9b1b1" style="fill: var(--color6, #f9b1b1)" d="M5.242 7.442c-0.822 0-1.488-0.666-1.488-1.488v-4.465c0-0.822 0.666-1.488 1.488-1.488s1.488 0.666 1.488 1.488v4.465c0 0.822-0.666 1.488-1.488 1.488z"></path>
<path fill="#f9b1b1" style="fill: var(--color6, #f9b1b1)" d="M19.586 7.442c-0.822 0-1.488-0.666-1.488-1.488v-4.465c0-0.822 0.666-1.488 1.488-1.488s1.488 0.666 1.488 1.488v4.465c0 0.822-0.666 1.488-1.488 1.488z"></path>
<path fill="#f9b1b1" style="fill: var(--color6, #f9b1b1)" d="M26.759 7.442c-0.822 0-1.488-0.666-1.488-1.488v-4.465c0-0.822 0.666-1.488 1.488-1.488s1.488 0.666 1.488 1.488v4.465c0 0.822-0.666 1.488-1.488 1.488z"></path>
</symbol>
<symbol id="icon-calendara_bw" viewBox="0 0 32 32">
<path d="M28.954 31.135h-25.908c-1.074-0.001-1.944-0.872-1.946-1.946v-24.539c0.001-1.077 0.874-1.95 1.951-1.952h2.32c0.239 0 0.432 0.194 0.432 0.432v0 2.249h1.807v-2.249c0-0.239 0.194-0.432 0.432-0.432v0h14.939c0.239 0 0.432 0.194 0.432 0.432v0 2.249h1.805v-2.249c0-0.239 0.194-0.432 0.432-0.432v0h3.302c1.074 0.001 1.944 0.872 1.946 1.946v24.544c-0.001 1.074-0.872 1.944-1.946 1.946h-0zM3.052 3.564c-0.6 0.001-1.086 0.487-1.087 1.087v24.538c0 0.597 0.484 1.081 1.081 1.081v0h25.908c0.597 0 1.081-0.484 1.081-1.081v0-24.544c0-0.597-0.484-1.081-1.081-1.081v0h-2.87v1.874c-0 0.446-0.362 0.807-0.808 0.808h-1.919c-0.446-0-0.807-0.362-0.808-0.808v-1.874h-14.074v1.874c-0.001 0.446-0.362 0.807-0.808 0.808h-1.921c-0.446-0-0.808-0.362-0.808-0.808v-1.874z"></path>
<path d="M30.468 10.002h-28.936c-0.239 0-0.432-0.194-0.432-0.432v0-4.919c0.001-1.077 0.875-1.951 1.952-1.952h2.32c0.239 0 0.432 0.194 0.432 0.432v0 2.249h1.807v-2.249c0-0.239 0.194-0.432 0.432-0.432v0h14.939c0.239 0 0.432 0.194 0.432 0.432v0 2.249h1.805v-2.249c0-0.239 0.194-0.432 0.432-0.432v0h3.302c1.074 0.001 1.944 0.872 1.946 1.946v4.925c0 0.239-0.193 0.432-0.432 0.432h-0zM1.965 9.137h28.071v-4.492c0-0.597-0.484-1.081-1.081-1.081v0h-2.87v1.874c-0 0.446-0.362 0.807-0.808 0.808h-1.919c-0.446-0-0.807-0.362-0.808-0.808v-1.874h-14.074v1.874c-0.001 0.446-0.362 0.807-0.808 0.808h-1.921c-0.446-0-0.808-0.362-0.808-0.808v-1.874h-1.887c-0.6 0.001-1.086 0.487-1.087 1.087v0z"></path>
<path d="M7.666 6.246h-1.919c-0.446-0-0.808-0.362-0.808-0.808v-3.765c0-0.446 0.362-0.808 0.808-0.808h1.919c0 0 0.001 0 0.001 0 0.446 0 0.808 0.362 0.809 0.808v3.765c-0.001 0.446-0.362 0.808-0.809 0.808-0 0-0.001 0-0.001 0h0zM5.804 5.381h1.807v-3.651h-1.807z"></path>
<path d="M25.277 6.246h-1.919c-0.446-0-0.807-0.362-0.808-0.808v-3.765c0.001-0.446 0.362-0.807 0.808-0.808h1.919c0.446 0 0.807 0.362 0.808 0.808v3.765c-0 0.446-0.362 0.807-0.808 0.808h-0zM23.415 5.381h1.805v-3.651h-1.805z"></path>
<path d="M9.423 22.079h-3.204c-0.239 0-0.432-0.194-0.432-0.432v0-3.203c0-0.239 0.194-0.432 0.432-0.432v0h3.204c0.239 0 0.432 0.194 0.432 0.432v0 3.203c0 0.239-0.194 0.432-0.432 0.432v0zM6.651 21.214h2.339v-2.339h-2.339z"></path>
<path d="M9.423 16.266h-3.204c-0.239 0-0.432-0.194-0.432-0.432v0-3.203c0-0.239 0.194-0.432 0.432-0.432v0h3.204c0.239 0 0.432 0.194 0.432 0.432v0 3.203c0 0.239-0.194 0.432-0.432 0.432v0zM6.651 15.401h2.339v-2.339h-2.339z"></path>
<path d="M9.423 27.897h-3.204c-0.239 0-0.432-0.194-0.432-0.432v0-3.205c0-0.239 0.194-0.432 0.432-0.432v0h3.204c0.239 0 0.432 0.194 0.432 0.432v0 3.203c0 0 0 0.001 0 0.001 0 0.239-0.194 0.432-0.432 0.432 0 0 0 0 0 0v0zM6.651 27.032h2.339v-2.34h-2.339z"></path>
<path d="M17.6 16.266h-3.2c-0.239 0-0.432-0.194-0.432-0.432v0-3.203c0-0.239 0.194-0.432 0.432-0.432v0h3.2c0.239 0 0.432 0.194 0.432 0.432v0 3.203c0 0.239-0.194 0.432-0.432 0.432v0zM14.829 15.401h2.339v-2.339h-2.335z"></path>
<path d="M17.6 22.079h-3.2c-0.239 0-0.432-0.194-0.432-0.432v0-3.203c0-0.239 0.194-0.432 0.432-0.432v0h3.2c0.239 0 0.432 0.194 0.432 0.432v0 3.203c0 0.239-0.194 0.432-0.432 0.432v0zM14.829 21.214h2.339v-2.339h-2.335z"></path>
<path d="M17.6 27.897h-3.2c-0.239 0-0.432-0.194-0.432-0.432v0-3.205c0-0.239 0.194-0.432 0.432-0.432v0h3.2c0.239 0 0.432 0.194 0.432 0.432v0 3.203c0 0 0 0.001 0 0.001 0 0.239-0.194 0.432-0.432 0.432 0 0 0 0 0 0v0zM14.829 27.032h2.339v-2.34h-2.335z"></path>
<path d="M25.781 16.266h-3.204c-0.239 0-0.432-0.194-0.432-0.432v0-3.203c0-0.239 0.194-0.432 0.432-0.432v0h3.204c0.239 0 0.432 0.194 0.432 0.432v0 3.203c0 0.239-0.194 0.432-0.432 0.432v0zM23.010 15.401h2.339v-2.339h-2.339z"></path>
<path d="M25.781 22.079h-3.204c-0.239 0-0.432-0.194-0.432-0.432v0-3.203c0-0.239 0.194-0.432 0.432-0.432v0h3.204c0.239 0 0.432 0.194 0.432 0.432v0 3.203c0 0.239-0.194 0.432-0.432 0.432v0zM23.010 21.214h2.339v-2.339h-2.339z"></path>
<path d="M25.781 27.897h-3.204c-0.239 0-0.432-0.194-0.432-0.432v0-3.205c0-0.239 0.194-0.432 0.432-0.432v0h3.204c0.239 0 0.432 0.194 0.432 0.432v0 3.203c0 0 0 0.001 0 0.001 0 0.239-0.194 0.432-0.432 0.432 0 0 0 0 0 0v0zM23.010 27.032h2.339v-2.34h-2.339z"></path>
</symbol>
<symbol id="icon-cancel" viewBox="0 0 32 32">
<path d="M17.768 16l13.866-13.866c0.488-0.488 0.488-1.28 0-1.768s-1.28-0.488-1.768 0l-13.866 13.866-13.866-13.866c-0.488-0.488-1.28-0.488-1.768 0s-0.488 1.28 0 1.768l13.866 13.866-13.866 13.866c-0.488 0.488-0.488 1.28 0 1.768 0.244 0.244 0.564 0.366 0.884 0.366s0.64-0.122 0.884-0.366l13.866-13.866 13.866 13.866c0.244 0.244 0.564 0.366 0.884 0.366s0.64-0.122 0.884-0.366c0.488-0.488 0.488-1.28 0-1.768l-13.866-13.866z"></path>
</symbol>
<symbol id="icon-clipboard" viewBox="0 0 32 32">
<path d="M25.371 4.193h-2.895v-1.295c0-0.419-0.457-0.609-0.876-0.609h-2.247c-0.533-1.524-1.867-2.286-3.39-2.286-1.507-0.057-2.878 0.867-3.39 2.286h-2.209c-0.419 0-0.838 0.19-0.838 0.609v1.295h-2.895c-1.716 0.018-3.119 1.372-3.2 3.085v21.827c0 1.676 1.524 2.895 3.2 2.895h18.741c1.676 0 3.2-1.219 3.2-2.895v-21.827c-0.081-1.714-1.484-3.067-3.2-3.086zM11.048 3.812h2.095c0.366-0.045 0.659-0.323 0.724-0.686 0.226-0.982 1.087-1.688 2.095-1.714 0.998 0.030 1.847 0.738 2.057 1.714 0.068 0.375 0.381 0.657 0.762 0.686h2.171v3.047h-9.904v-3.047zM27.047 29.105c0 0.838-0.838 1.371-1.676 1.371h-18.741c-0.838 0-1.676-0.533-1.676-1.371v-21.827c0.078-0.872 0.8-1.546 1.676-1.562h2.895v1.943c0.040 0.427 0.41 0.746 0.838 0.724h11.237c0.436 0.024 0.817-0.291 0.876-0.724v-1.943h2.895c0.876 0.016 1.598 0.689 1.676 1.562v21.827z"></path>
<path d="M13.067 17.030c-0.286-0.301-0.76-0.318-1.067-0.038l-2.438 2.324-1.028-1.067c-0.286-0.301-0.76-0.318-1.067-0.038-0.295 0.309-0.295 0.796 0 1.105l1.562 1.6c0.135 0.151 0.33 0.235 0.533 0.229 0.201-0.003 0.393-0.085 0.533-0.229l2.971-2.819c0.295-0.27 0.314-0.728 0.044-1.023-0.014-0.015-0.028-0.030-0.044-0.044z"></path>
<path d="M23.999 18.668h-8.761c-0.421 0-0.762 0.341-0.762 0.762s0.341 0.762 0.762 0.762h8.761c0.421 0 0.762-0.341 0.762-0.762s-0.341-0.762-0.762-0.762z"></path>
<path d="M13.067 10.935c-0.286-0.301-0.76-0.318-1.067-0.038l-2.438 2.324-1.028-1.067c-0.286-0.301-0.76-0.318-1.067-0.038-0.295 0.309-0.295 0.796 0 1.105l1.562 1.6c0.135 0.151 0.33 0.235 0.533 0.229 0.201-0.003 0.393-0.085 0.533-0.229l2.971-2.819c0.295-0.27 0.314-0.728 0.044-1.023-0.014-0.015-0.028-0.030-0.044-0.044z"></path>
<path d="M23.999 12.573h-8.761c-0.421 0-0.762 0.341-0.762 0.762s0.341 0.762 0.762 0.762h8.761c0.421 0 0.762-0.341 0.762-0.762s-0.341-0.762-0.762-0.762z"></path>
<path d="M13.067 23.124c-0.286-0.301-0.76-0.318-1.067-0.038l-2.438 2.324-1.028-1.067c-0.286-0.301-0.76-0.318-1.067-0.038-0.295 0.309-0.295 0.796 0 1.105l1.562 1.6c0.135 0.151 0.33 0.235 0.533 0.229 0.201-0.003 0.393-0.085 0.533-0.229l2.971-2.819c0.295-0.27 0.314-0.728 0.044-1.023-0.014-0.015-0.028-0.030-0.044-0.044z"></path>
<path d="M23.999 24.762h-8.761c-0.421 0-0.762 0.341-0.762 0.762s0.341 0.762 0.762 0.762h8.761c0.421 0 0.762-0.341 0.762-0.762s-0.341-0.762-0.762-0.762z"></path>
</symbol>
<symbol id="icon-delete" viewBox="0 0 32 32">
<path d="M28.992 7.153l-0.707-2.118c-0.269-0.807-1.021-1.349-1.871-1.349h-5.938v-1.933c0-0.966-0.786-1.753-1.752-1.753h-5.438c-0.966 0-1.752 0.786-1.752 1.753v1.933h-5.938c-0.85 0-1.603 0.542-1.872 1.349l-0.707 2.118c-0.161 0.482-0.079 1.016 0.218 1.428s0.778 0.659 1.286 0.659h0.739l1.625 20.1c0.121 1.491 1.386 2.66 2.882 2.66h12.804c1.495 0 2.761-1.168 2.882-2.66l1.625-20.1h0.409c0.508 0 0.989-0.246 1.286-0.658s0.379-0.947 0.218-1.429zM13.41 1.875h5.191v1.811h-5.191zM23.585 29.189c-0.042 0.525-0.487 0.936-1.013 0.936h-12.804c-0.525 0-0.97-0.411-1.013-0.936l-1.614-19.949h18.056zM4.925 7.365l0.579-1.737c0.013-0.040 0.051-0.067 0.093-0.067h20.818c0.042 0 0.079 0.027 0.093 0.067l0.579 1.737z"></path>
<path d="M20.595 29.122c0.017 0.001 0.033 0.001 0.050 0.001 0.495 0 0.909-0.388 0.935-0.889l0.88-16.9c0.027-0.517-0.371-0.958-0.887-0.985-0.518-0.028-0.958 0.37-0.985 0.887l-0.88 16.9c-0.027 0.517 0.37 0.958 0.887 0.985z"></path>
<path d="M10.473 28.237c0.027 0.5 0.441 0.886 0.935 0.886 0.017 0 0.035-0 0.052-0.001 0.517-0.028 0.913-0.47 0.885-0.987l-0.922-16.9c-0.028-0.517-0.47-0.913-0.987-0.885s-0.913 0.47-0.885 0.987z"></path>
<path d="M16.016 29.124c0.518 0 0.938-0.42 0.938-0.938v-16.9c0-0.518-0.42-0.938-0.938-0.938s-0.938 0.42-0.938 0.938v16.9c0 0.518 0.42 0.938 0.938 0.938z"></path>
</symbol>
<symbol id="icon-descendant" viewBox="0 0 32 32">
<path d="M31.006 8.644l-7.525-7.525c-0.494-0.494-1.288-0.494-1.781 0l-7.519 7.525c-0.494 0.494-0.494 1.287 0 1.781s1.287 0.494 1.781 0l5.356-5.356v22.050c0 0.706 0.569 1.275 1.275 1.275s1.275-0.569 1.275-1.275v-22.050l5.356 5.356c0.494 0.494 1.288 0.494 1.781 0 0.494-0.488 0.494-1.287 0-1.781z"></path>
<path d="M17.944 21.7c-0.494-0.494-1.288-0.494-1.781 0l-5.356 5.356v-22.050c0-0.706-0.569-1.275-1.275-1.275s-1.275 0.569-1.275 1.275v22.050l-5.356-5.356c-0.494-0.494-1.288-0.494-1.781 0s-0.494 1.288 0 1.781l7.525 7.525c0.494 0.494 1.287 0.494 1.781 0l7.525-7.525c0.488-0.494 0.488-1.294-0.006-1.781v0z"></path>
</symbol>
<symbol id="icon-down-arrow" viewBox="0 0 32 32">
<path fill="#ffc107" style="fill: var(--color7, #ffc107)" d="M30.803 7.86l-14.811 14.813-14.811-14.813c-0.276-0.267-0.717-0.259-0.984 0.017-0.26 0.27-0.26 0.697 0 0.966l15.304 15.304c0.272 0.272 0.712 0.272 0.984 0l15.304-15.304c0.276-0.267 0.284-0.707 0.017-0.984s-0.707-0.284-0.984-0.017c-0.006 0.006-0.011 0.011-0.017 0.017l-0.001 0z"></path>
<path fill="#000" style="fill: var(--color8, #000)" d="M15.991 24.352c-0.185 0-0.362-0.073-0.492-0.203l-15.304-15.304c-0.267-0.276-0.259-0.717 0.017-0.984 0.27-0.26 0.697-0.26 0.966 0l14.813 14.811 14.811-14.813c0.267-0.276 0.707-0.284 0.984-0.017s0.284 0.707 0.017 0.984c-0.006 0.006-0.011 0.011-0.017 0.017l-15.304 15.304c-0.13 0.131-0.307 0.204-0.491 0.204z"></path>
</symbol>
<symbol id="icon-folder" viewBox="0 0 32 32">
<path fill="#fcd462" style="fill: var(--color9, #fcd462)" d="M30.293 28.283h-28.587c-0.943 0-1.707-0.764-1.707-1.707v-21.153c0-0.943 0.764-1.707 1.707-1.707h8.070c0.617 0 1.185 0.333 1.488 0.87l0.941 1.673c0.302 0.537 0.871 0.87 1.488 0.87h16.601c0.943 0 1.707 0.764 1.707 1.707v17.74c-0 0.943-0.764 1.707-1.707 1.707z"></path>
<path fill="#f6c358" style="fill: var(--color10, #f6c358)" d="M1.707 28.283h28.587c0.943 0 1.707-0.764 1.707-1.707v-17.74c0-0.943-0.764-1.707-1.707-1.707h-12.337c-0.617 0-1.185 0.333-1.488 0.87l-0.941 1.673c-0.302 0.537-0.871 0.87-1.488 0.87h-12.334c-0.943 0-1.707 0.764-1.707 1.707v14.326c0 0.943 0.764 1.707 1.707 1.707z"></path>
<path fill="#fcd462" style="fill: var(--color9, #fcd462)" d="M30.993 7.284c0.097 0.214 0.153 0.45 0.153 0.7v17.74c0 0.943-0.764 1.707-1.707 1.707h-28.587c-0.25 0-0.486-0.057-0.7-0.153 0.268 0.593 0.861 1.007 1.553 1.007h28.587c0.943 0 1.707-0.764 1.707-1.707v-17.74c0-0.693-0.414-1.286-1.007-1.553z"></path>
</symbol>
<symbol id="icon-image" viewBox="0 0 32 32">
<path d="M30.563 8.438c0-1.657-1.343-3-3-3v0h-23.063c-1.657 0-3 1.343-3 3v0 15.063c0 1.657 1.343 3 3 3v0h23.063c1.657 0 3-1.343 3-3v0zM4.469 6.438h23.062c1.103 0 1.969 0.925 1.969 2.028v10.542l-7.57-5.374c-0.079-0.057-0.178-0.092-0.286-0.092-0.135 0-0.258 0.055-0.346 0.143v0l-5.641 5.548-6.559-3.198c-0.062-0.032-0.134-0.050-0.211-0.050-0.089 0-0.173 0.025-0.244 0.069l0.002-0.001-6.144 3.573v-11.16c0-1.103 0.866-2.028 1.969-2.028zM2.5 23.535v-2.753l6.417-3.731 5.995 2.94-5.663 5.572h-4.78c-1.103 0-1.969-0.925-1.969-2.028zM27.531 25.563h-16.855l11.017-10.857 7.807 5.528v3.302c0 1.103-0.866 2.028-1.969 2.028z"></path>
<path d="M14.501 15.239c1.491 0 2.699-1.208 2.699-2.699s-1.208-2.699-2.699-2.699c-1.491 0-2.699 1.208-2.699 2.699v0c0.002 1.49 1.209 2.697 2.699 2.699h0zM14.501 10.841c0.938 0 1.699 0.761 1.699 1.699s-0.761 1.699-1.699 1.699c-0.938 0-1.699-0.761-1.699-1.699v0c0.001-0.938 0.761-1.698 1.699-1.699h0z"></path>
</symbol>
<symbol id="icon-left-arrow" viewBox="0 0 32 32">
<path d="M10.353 16.007l13.906-13.906c0.481-0.481 0.481-1.26 0-1.741s-1.26-0.481-1.741 0l-14.776 14.776c-0.481 0.481-0.481 1.26 0 1.741l14.776 14.776c0.489 0.472 1.269 0.459 1.741-0.030 0.461-0.477 0.461-1.234 0-1.711l-13.906-13.906z"></path>
</symbol>
<symbol id="icon-more" viewBox="0 0 32 32">
<path d="M4 12c-2.205 0-4 1.795-4 4s1.795 4 4 4 4-1.795 4-4-1.795-4-4-4zM4 18.667c-1.471 0-2.667-1.196-2.667-2.667s1.196-2.667 2.667-2.667c1.471 0 2.667 1.196 2.667 2.667s-1.196 2.667-2.667 2.667z"></path>
<path d="M16 12c-2.205 0-4 1.795-4 4s1.795 4 4 4 4-1.795 4-4-1.795-4-4-4zM16 18.667c-1.471 0-2.667-1.196-2.667-2.667s1.196-2.667 2.667-2.667 2.667 1.196 2.667 2.667-1.196 2.667-2.667 2.667z"></path>
<path d="M28 12c-2.205 0-4 1.795-4 4s1.795 4 4 4c2.205 0 4-1.795 4-4s-1.795-4-4-4zM28 18.667c-1.471 0-2.667-1.196-2.667-2.667s1.196-2.667 2.667-2.667c1.471 0 2.667 1.196 2.667 2.667s-1.196 2.667-2.667 2.667z"></path>
</symbol>
<symbol id="icon-mute" viewBox="0 0 32 32">
<path d="M28.639 17.308l3.087-3.087c0.366-0.366 0.366-0.96 0-1.326s-0.96-0.366-1.326 0l-3.087 3.087-3.087-3.087c-0.366-0.366-0.96-0.366-1.326 0s-0.366 0.96 0 1.326l3.087 3.087-3.087 3.087c-0.366 0.366-0.366 0.96 0 1.326s0.96 0.366 1.326 0l3.087-3.087 3.087 3.087c0.366 0.366 0.96 0.366 1.326 0s0.366-0.96 0-1.326l-3.087-3.087z"></path>
<path d="M19.004 0.27c-0.999-0.468-2.146-0.32-2.993 0.386l-7.913 6.594h-5.285c-1.551 0-2.812 1.262-2.812 2.812v11.874c0 1.551 1.262 2.812 2.812 2.812h5.285l7.913 6.594c0.848 0.707 1.995 0.854 2.993 0.386s1.619-1.444 1.619-2.547v-26.366c-0-1.103-0.621-2.079-1.619-2.547zM7.499 22.887h-4.687c-0.517 0-0.937-0.433-0.937-0.95v-11.874c0-0.517 0.421-0.937 0.937-0.937h4.687v13.761zM18.749 29.183c0 0.553-0.413 0.79-0.54 0.849s-0.573 0.225-0.998-0.129l-7.837-6.531v-14.745l7.837-6.531c0.425-0.354 0.871-0.188 0.998-0.129s0.54 0.296 0.54 0.849v26.366z"></path>
</symbol>
<symbol id="icon-arrow-right" viewBox="0 0 32 32">
<path d="M24.276 15.122l-14.801-14.76c-0.485-0.483-1.27-0.482-1.754 0.003s-0.482 1.27 0.003 1.754l13.92 13.881-13.92 13.881c-0.485 0.484-0.486 1.269-0.003 1.754 0.243 0.243 0.561 0.365 0.879 0.365s0.634-0.121 0.876-0.362l14.801-14.76c0.234-0.232 0.365-0.549 0.365-0.878s-0.131-0.645-0.365-0.878z"></path>
</symbol>
<symbol id="icon-notification" viewBox="0 0 32 32">
<path d="M29.239 26.991l-2.291-3.816c-1.056-1.761-1.615-3.777-1.615-5.832v-3.343c0-5.145-4.188-9.333-9.333-9.333s-9.333 4.188-9.333 9.333v3.343c0 2.055-0.559 4.071-1.615 5.832l-2.291 3.816c-0.124 0.205-0.127 0.463-0.009 0.671 0.119 0.209 0.341 0.339 0.581 0.339h25.333c0.24 0 0.463-0.129 0.581-0.339 0.117-0.208 0.115-0.465-0.009-0.671zM4.511 26.667l1.684-2.807c1.181-1.968 1.805-4.221 1.805-6.517v-3.343c0-4.412 3.588-8 8-8s8 3.588 8 8v3.343c0 2.296 0.624 4.549 1.804 6.517l1.685 2.807h-22.979z"></path>
<path d="M16 0c-1.471 0-2.667 1.196-2.667 2.667v2.667c0 0.368 0.299 0.667 0.667 0.667s0.667-0.299 0.667-0.667v-2.667c0-0.736 0.597-1.333 1.333-1.333s1.333 0.597 1.333 1.333v2.667c0 0.368 0.299 0.667 0.667 0.667s0.667-0.299 0.667-0.667v-2.667c0-1.471-1.196-2.667-2.667-2.667z"></path>
<path d="M18.885 26.996c-0.188-0.317-0.595-0.421-0.913-0.239-0.319 0.187-0.425 0.596-0.239 0.913 0.173 0.295 0.268 0.648 0.268 0.996 0 1.103-0.897 2-2 2s-2-0.897-2-2c0-0.348 0.095-0.701 0.268-0.996 0.185-0.319 0.079-0.727-0.239-0.913-0.321-0.183-0.727-0.079-0.913 0.239-0.295 0.504-0.451 1.081-0.451 1.671 0 1.839 1.495 3.333 3.333 3.333s3.333-1.495 3.336-3.333c0-0.589-0.156-1.167-0.451-1.671z"></path>
</symbol>
<symbol id="icon-settings" viewBox="0 0 32 32">
<path d="M17.493 32h-2.987c-1.009 0-1.861-0.756-1.981-1.76l-0.319-2.501c-0.636-0.207-1.249-0.461-1.832-0.759l-1.992 1.548c-0.808 0.625-1.945 0.553-2.647-0.168l-2.1-2.1c-0.716-0.695-0.788-1.832-0.163-2.639l1.548-1.993c-0.299-0.583-0.553-1.196-0.759-1.832l-2.507-0.319c-1-0.123-1.756-0.975-1.756-1.984v-2.987c0-1.009 0.756-1.861 1.76-1.981l2.501-0.319c0.207-0.636 0.461-1.249 0.759-1.832l-1.547-1.992c-0.627-0.808-0.553-1.947 0.169-2.648l2.1-2.1c0.695-0.716 1.833-0.787 2.639-0.163l1.992 1.549c0.583-0.297 1.196-0.552 1.833-0.759l0.319-2.507c0.12-1 0.972-1.756 1.981-1.756h2.987c1.009 0 1.861 0.756 1.981 1.76l0.319 2.501c0.637 0.207 1.251 0.461 1.833 0.759l1.992-1.548c0.809-0.625 1.945-0.553 2.647 0.169l2.1 2.1c0.716 0.695 0.788 1.832 0.163 2.639l-1.548 1.993c0.299 0.583 0.553 1.196 0.759 1.832l2.507 0.319c0.999 0.121 1.755 0.973 1.755 1.983v2.987c0 1.009-0.756 1.861-1.76 1.981l-2.501 0.319c-0.207 0.636-0.461 1.249-0.759 1.832l1.548 1.992c0.627 0.808 0.553 1.945-0.169 2.647l-2.1 2.1c-0.695 0.716-1.833 0.789-2.639 0.163l-1.993-1.548c-0.583 0.299-1.196 0.553-1.832 0.759l-0.319 2.507c-0.121 1-0.973 1.756-1.983 1.756zM10.307 25.52c0.111 0 0.224 0.028 0.325 0.084 0.735 0.411 1.531 0.741 2.365 0.981 0.256 0.073 0.444 0.292 0.477 0.556l0.373 2.933c0.040 0.335 0.329 0.592 0.659 0.592h2.987c0.329 0 0.619-0.257 0.657-0.585l0.375-2.939c0.033-0.264 0.221-0.483 0.477-0.556 0.835-0.24 1.631-0.571 2.365-0.981 0.233-0.131 0.524-0.108 0.733 0.056l2.333 1.813c0.268 0.208 0.644 0.191 0.873-0.045l2.113-2.113c0.241-0.235 0.26-0.611 0.052-0.88l-1.813-2.333c-0.164-0.211-0.187-0.5-0.056-0.733 0.411-0.735 0.741-1.531 0.981-2.365 0.073-0.256 0.292-0.444 0.556-0.477l2.933-0.373c0.335-0.041 0.592-0.331 0.592-0.66v-2.987c0-0.329-0.257-0.619-0.585-0.657l-2.939-0.375c-0.264-0.033-0.483-0.221-0.556-0.477-0.24-0.835-0.571-1.631-0.981-2.365-0.131-0.233-0.109-0.523 0.056-0.733l1.813-2.333c0.209-0.269 0.191-0.645-0.044-0.872l-2.113-2.113c-0.233-0.243-0.611-0.261-0.88-0.052l-2.333 1.813c-0.212 0.164-0.501 0.187-0.735 0.056-0.732-0.411-1.528-0.74-2.365-0.981-0.256-0.073-0.444-0.292-0.477-0.556l-0.373-2.933c-0.041-0.336-0.331-0.593-0.66-0.593h-2.987c-0.329 0-0.619 0.257-0.657 0.585l-0.375 2.939c-0.033 0.264-0.221 0.483-0.477 0.557-0.837 0.24-1.633 0.571-2.365 0.98-0.233 0.132-0.523 0.108-0.735-0.055l-2.333-1.813c-0.269-0.209-0.644-0.191-0.872 0.044l-2.113 2.115c-0.241 0.235-0.26 0.611-0.052 0.88l1.813 2.333c0.164 0.211 0.187 0.5 0.056 0.733-0.412 0.735-0.741 1.531-0.981 2.365-0.073 0.256-0.292 0.444-0.556 0.477l-2.933 0.373c-0.335 0.040-0.592 0.329-0.592 0.659v2.987c0 0.329 0.257 0.619 0.585 0.657l2.939 0.375c0.264 0.033 0.483 0.221 0.556 0.477 0.24 0.835 0.571 1.631 0.981 2.365 0.131 0.233 0.109 0.523-0.056 0.733l-1.813 2.333c-0.209 0.269-0.191 0.645 0.044 0.872l2.113 2.113c0.233 0.241 0.608 0.26 0.88 0.052l2.333-1.813c0.121-0.091 0.265-0.139 0.411-0.139z"></path>
<path d="M16 22.667c-3.676 0-6.667-2.991-6.667-6.667s2.991-6.667 6.667-6.667 6.667 2.991 6.667 6.667-2.991 6.667-6.667 6.667zM16 10.667c-2.941 0-5.333 2.392-5.333 5.333s2.392 5.333 5.333 5.333 5.333-2.392 5.333-5.333-2.392-5.333-5.333-5.333z"></path>
</symbol>
<symbol id="icon-star" viewBox="0 0 32 32">
<path  d="M31.917 12.275c-0.209-0.648-0.784-1.108-1.464-1.169l-9.236-0.839-3.652-8.548c-0.269-0.626-0.883-1.032-1.564-1.032s-1.295 0.406-1.564 1.033l-3.652 8.547-9.238 0.839c-0.679 0.063-1.252 0.521-1.463 1.169s-0.016 1.359 0.497 1.807l6.981 6.123-2.059 9.068c-0.151 0.667 0.108 1.356 0.661 1.756 0.297 0.215 0.645 0.324 0.996 0.324 0.303 0 0.603-0.082 0.872-0.243l7.967-4.762 7.964 4.762c0.583 0.351 1.317 0.319 1.869-0.082 0.553-0.401 0.812-1.091 0.661-1.756l-2.059-9.068 6.981-6.122c0.513-0.449 0.709-1.159 0.499-1.808z"></path>
</symbol>
<symbol id="icon-up-arrow" viewBox="0 0 32 32">
<path fill="#ffc107" style="fill: var(--color7, #ffc107)" d="M31.797 23.162l-15.309-15.309c-0.272-0.272-0.712-0.272-0.984 0l-15.309 15.309c-0.267 0.276-0.259 0.717 0.017 0.984 0.27 0.261 0.697 0.261 0.967 0l14.816-14.816 14.816 14.818c0.276 0.267 0.717 0.259 0.984-0.017 0.26-0.27 0.26-0.697 0-0.967l0.001-0.001z"></path>
<path fill="#000" style="fill: var(--color8, #000)" d="M31.304 24.351c-0.185 0-0.362-0.073-0.493-0.203l-14.816-14.818-14.816 14.818c-0.276 0.267-0.717 0.259-0.984-0.017-0.261-0.27-0.261-0.697 0-0.967l15.309-15.309c0.272-0.272 0.712-0.272 0.984 0l15.309 15.309c0.271 0.272 0.271 0.713-0.002 0.984-0.13 0.13-0.307 0.203-0.491 0.203z"></path>
</symbol>
<symbol id="icon-wall-clock" viewBox="0 0 32 32">
<path d="M16 14.594c-0.088 0-0.174 0.008-0.257 0.024l-4.29-7.431c-0.129-0.224-0.416-0.301-0.64-0.172s-0.301 0.416-0.172 0.64l4.291 7.432c-0.21 0.246-0.338 0.565-0.338 0.913 0 0.611 0.392 1.132 0.938 1.326v10.456c0 0.259 0.21 0.469 0.469 0.469s0.469-0.21 0.469-0.469v-10.456c0.546-0.194 0.938-0.715 0.938-1.326 0-0.775-0.631-1.406-1.406-1.406zM16 16.469c-0.258 0-0.469-0.21-0.469-0.469s0.21-0.469 0.469-0.469 0.469 0.21 0.469 0.469-0.21 0.469-0.469 0.469z"></path>
<path d="M27.314 4.686c-3.022-3.022-7.040-4.686-11.314-4.686s-8.292 1.664-11.314 4.686c-3.022 3.022-4.686 7.040-4.686 11.314s1.664 8.292 4.686 11.314c3.022 3.022 7.040 4.686 11.314 4.686s8.292-1.664 11.314-4.686c3.022-3.022 4.686-7.040 4.686-11.314s-1.664-8.292-4.686-11.314zM16 31.063c-8.306 0-15.063-6.757-15.063-15.063s6.757-15.063 15.063-15.063 15.063 6.757 15.063 15.063-6.757 15.063-15.063 15.063z"></path>
<path d="M16.469 4.219c0 0.259-0.21 0.469-0.469 0.469s-0.469-0.21-0.469-0.469c0-0.259 0.21-0.469 0.469-0.469s0.469 0.21 0.469 0.469z"></path>
<path d="M10.578 5.797c0 0.259-0.21 0.469-0.469 0.469s-0.469-0.21-0.469-0.469c0-0.259 0.21-0.469 0.469-0.469s0.469 0.21 0.469 0.469z"></path>
<path d="M6.266 10.109c0 0.259-0.21 0.469-0.469 0.469s-0.469-0.21-0.469-0.469c0-0.259 0.21-0.469 0.469-0.469s0.469 0.21 0.469 0.469z"></path>
<path d="M4.688 16c0 0.259-0.21 0.469-0.469 0.469s-0.469-0.21-0.469-0.469c0-0.259 0.21-0.469 0.469-0.469s0.469 0.21 0.469 0.469z"></path>
<path d="M6.266 21.891c0 0.259-0.21 0.469-0.469 0.469s-0.469-0.21-0.469-0.469c0-0.259 0.21-0.469 0.469-0.469s0.469 0.21 0.469 0.469z"></path>
<path d="M10.578 26.203c0 0.259-0.21 0.469-0.469 0.469s-0.469-0.21-0.469-0.469c0-0.259 0.21-0.469 0.469-0.469s0.469 0.21 0.469 0.469z"></path>
<path d="M22.359 26.203c0 0.259-0.21 0.469-0.469 0.469s-0.469-0.21-0.469-0.469c0-0.259 0.21-0.469 0.469-0.469s0.469 0.21 0.469 0.469z"></path>
<path d="M26.672 21.891c0 0.259-0.21 0.469-0.469 0.469s-0.469-0.21-0.469-0.469c0-0.259 0.21-0.469 0.469-0.469s0.469 0.21 0.469 0.469z"></path>
<path d="M28.25 16c0 0.259-0.21 0.469-0.469 0.469s-0.469-0.21-0.469-0.469c0-0.259 0.21-0.469 0.469-0.469s0.469 0.21 0.469 0.469z"></path>
<path d="M26.672 10.109c0 0.259-0.21 0.469-0.469 0.469s-0.469-0.21-0.469-0.469c0-0.259 0.21-0.469 0.469-0.469s0.469 0.21 0.469 0.469z"></path>
<path d="M22.359 5.797c0 0.259-0.21 0.469-0.469 0.469s-0.469-0.21-0.469-0.469c0-0.259 0.21-0.469 0.469-0.469s0.469 0.21 0.469 0.469z"></path>
<path d="M25.988 6.012c-2.668-2.668-6.215-4.137-9.988-4.137-3.413 0-6.708 1.234-9.279 3.475-0.195 0.17-0.215 0.466-0.045 0.661s0.466 0.215 0.661 0.045c2.399-2.092 5.476-3.244 8.663-3.244 7.272 0 13.188 5.916 13.188 13.188s-5.916 13.188-13.188 13.188-13.188-5.916-13.188-13.188c0-3.187 1.152-6.263 3.244-8.663 0.17-0.195 0.15-0.491-0.045-0.661s-0.491-0.15-0.661 0.045c-2.241 2.57-3.475 5.865-3.475 9.279 0 3.773 1.469 7.32 4.137 9.988s6.215 4.137 9.988 4.137c3.773 0 7.32-1.469 9.988-4.137s4.137-6.215 4.137-9.988c0-3.773-1.469-7.32-4.137-9.988z"></path>
</symbol>
<symbol id="icon-week" viewBox="0 0 32 32">
<path fill="#f5f8f9" style="fill: var(--color11, #f5f8f9)" d="M0 9.328v22.307h16l1.527-10.888-1.527-11.419-7.502-1.859z"></path>
<path fill="#e3eaee" style="fill: var(--color12, #e3eaee)" d="M32 9.328l-7.635-2.191-8.365 2.191v22.307h16z"></path>
<path fill="#ff3f5c" style="fill: var(--color13, #ff3f5c)" d="M0 3.353v5.975h16l1.261-2.855-1.261-3.12z"></path>
<path fill="#ca2e43" style="fill: var(--color14, #ca2e43)" d="M16 3.353h16v5.975h-16z"></path>
<path fill="#c2bce0" style="fill: var(--color15, #c2bce0)" d="M7.004 0.365h1.992v5.975h-1.992z"></path>
<path fill="#a299d1" style="fill: var(--color16, #a299d1)" d="M23.004 0.365h1.992v5.975h-1.992z"></path>
<path fill="#6e61b6" style="fill: var(--color17, #6e61b6)" d="M2.988 26.656h5.046v1.992h-5.046z"></path>
<path fill="#463b84" style="fill: var(--color18, #463b84)" d="M27.021 26.656h1.992v1.992h-1.992z"></path>
<path fill="#463b84" style="fill: var(--color18, #463b84)" d="M23.037 26.656h1.992v1.992h-1.992z"></path>
<path fill="#6e61b6" style="fill: var(--color17, #6e61b6)" d="M12.746 27.635l1.811 0.83 1.443-3.148 0.598-3.242-0.598-1.537z"></path>
<path fill="#6e61b6" style="fill: var(--color17, #6e61b6)" d="M12.074 12.78v1.992h3.926l0.598-0.929-0.598-1.062z"></path>
<path fill="#463b84" style="fill: var(--color18, #463b84)" d="M20.922 12.78h-4.922v1.992h2.643l-2.643 5.766v4.779l4.922-10.736z"></path>
</symbol>
<symbol id="icon-eye" viewBox="0 0 32 32">
<path d="M16 6c-6.979 0-13.028 4.064-16 10 2.972 5.936 9.021 10 16 10s13.027-4.064 16-10c-2.972-5.936-9.021-10-16-10zM23.889 11.303c1.88 1.199 3.473 2.805 4.67 4.697-1.197 1.891-2.79 3.498-4.67 4.697-2.362 1.507-5.090 2.303-7.889 2.303s-5.527-0.796-7.889-2.303c-1.88-1.199-3.473-2.805-4.67-4.697 1.197-1.891 2.79-3.498 4.67-4.697 0.122-0.078 0.246-0.154 0.371-0.228-0.311 0.854-0.482 1.776-0.482 2.737 0 4.418 3.582 8 8 8s8-3.582 8-8c0-0.962-0.17-1.883-0.482-2.737 0.124 0.074 0.248 0.15 0.371 0.228v0zM16 13c0 1.657-1.343 3-3 3s-3-1.343-3-3 1.343-3 3-3 3 1.343 3 3z"></path>
</symbol>
<symbol id="icon-eye-blocked" viewBox="0 0 32 32">
<path d="M29.561 0.439c-0.586-0.586-1.535-0.586-2.121 0l-6.318 6.318c-1.623-0.492-3.342-0.757-5.122-0.757-6.979 0-13.028 4.064-16 10 1.285 2.566 3.145 4.782 5.407 6.472l-4.968 4.968c-0.586 0.586-0.586 1.535 0 2.121 0.293 0.293 0.677 0.439 1.061 0.439s0.768-0.146 1.061-0.439l27-27c0.586-0.586 0.586-1.536 0-2.121zM13 10c1.32 0 2.44 0.853 2.841 2.037l-3.804 3.804c-1.184-0.401-2.037-1.521-2.037-2.841 0-1.657 1.343-3 3-3zM3.441 16c1.197-1.891 2.79-3.498 4.67-4.697 0.122-0.078 0.246-0.154 0.371-0.228-0.311 0.854-0.482 1.776-0.482 2.737 0 1.715 0.54 3.304 1.459 4.607l-1.904 1.904c-1.639-1.151-3.038-2.621-4.114-4.323z"></path>
<path d="M24 13.813c0-0.849-0.133-1.667-0.378-2.434l-10.056 10.056c0.768 0.245 1.586 0.378 2.435 0.378 4.418 0 8-3.582 8-8z"></path>
<path d="M25.938 9.062l-2.168 2.168c0.040 0.025 0.079 0.049 0.118 0.074 1.88 1.199 3.473 2.805 4.67 4.697-1.197 1.891-2.79 3.498-4.67 4.697-2.362 1.507-5.090 2.303-7.889 2.303-1.208 0-2.403-0.149-3.561-0.439l-2.403 2.403c1.866 0.671 3.873 1.036 5.964 1.036 6.978 0 13.027-4.064 16-10-1.407-2.81-3.504-5.2-6.062-6.938z"></path>
</symbol>
<symbol id="icon-pen" viewBox="0 0 32 32">
<path d="M27.547 2.197c-1.613-1.61-4.225-1.61-5.838 0l-1.461 1.469-15.588 15.58c-0.008 0.008-0.008 0.017-0.017 0.017-0.017 0.025-0.041 0.049-0.058 0.074 0 0.008-0.009 0.008-0.009 0.017-0.017 0.025-0.025 0.041-0.041 0.066-0.008 0.008-0.008 0.016-0.016 0.025-0.008 0.025-0.017 0.041-0.025 0.066 0 0.008-0.008 0.008-0.008 0.017l-3.451 10.378c-0.101 0.295-0.024 0.623 0.198 0.842 0.156 0.154 0.367 0.24 0.586 0.24 0.090-0.002 0.178-0.015 0.264-0.041l10.37-3.459c0.008 0 0.008 0 0.017-0.008 0.026-0.008 0.051-0.019 0.074-0.033 0.006-0.001 0.012-0.004 0.017-0.008 0.025-0.017 0.058-0.033 0.082-0.050s0.050-0.041 0.074-0.058c0.008-0.009 0.016-0.009 0.016-0.017 0.009-0.008 0.025-0.016 0.033-0.033l17.016-17.016c1.61-1.613 1.61-4.225 0-5.837zM12.19 25.546l-5.746-5.746 14.382-14.382 5.746 5.746zM5.634 21.327l5.020 5.020-7.538 2.51zM28.62 9.108l-0.875 0.884-5.747-5.747 0.884-0.883c0.967-0.966 2.534-0.966 3.5 0l2.246 2.246c0.959 0.971 0.956 2.534-0.008 3.501z"></path>
</symbol>
<symbol id="icon-paper-push-pin" viewBox="0 0 32 32">
<path d="M25.567 16.664c-1.007-1.263-2.144-1.894-3.414-1.894v-9.846c0.667 0 1.244-0.244 1.731-0.731 0.488-0.487 0.731-1.064 0.731-1.731s-0.244-1.244-0.731-1.731c-0.486-0.487-1.064-0.731-1.731-0.731h-12.307c-0.667 0-1.244 0.244-1.731 0.731s-0.731 1.064-0.731 1.731c0 0.667 0.244 1.244 0.731 1.731s1.064 0.731 1.731 0.731v9.846c-1.269 0-2.407 0.631-3.413 1.894s-1.51 2.682-1.51 4.26c0 0.333 0.122 0.622 0.365 0.865s0.532 0.365 0.866 0.365h7.769l1.462 9.327c0.064 0.346 0.269 0.519 0.615 0.519h0.020c0.153 0 0.285-0.054 0.394-0.163s0.176-0.241 0.202-0.394l0.981-9.289h8.25c0.333 0 0.622-0.122 0.865-0.365s0.366-0.532 0.366-0.865c0-1.577-0.504-2.997-1.51-4.26zM14.154 14.154c0 0.179-0.058 0.327-0.173 0.442s-0.263 0.173-0.442 0.173c-0.179 0-0.327-0.058-0.442-0.173s-0.173-0.263-0.173-0.442v-8.615c0-0.179 0.058-0.327 0.173-0.442s0.263-0.173 0.442-0.173c0.179 0 0.327 0.058 0.442 0.173s0.173 0.263 0.173 0.442v8.615z"></path>
</symbol>
<symbol id="icon-cog" viewBox="0 0 32 32">
<path d="M29.181 19.070c-1.679-2.908-0.669-6.634 2.255-8.328l-3.145-5.447c-0.898 0.527-1.943 0.829-3.058 0.829-3.361 0-6.085-2.742-6.085-6.125h-6.289c0.008 1.044-0.252 2.103-0.811 3.070-1.679 2.908-5.411 3.897-8.339 2.211l-3.144 5.447c0.905 0.515 1.689 1.268 2.246 2.234 1.676 2.903 0.672 6.623-2.241 8.319l3.145 5.447c0.895-0.522 1.935-0.82 3.044-0.82 3.35 0 6.067 2.725 6.084 6.092h6.289c-0.003-1.034 0.259-2.080 0.811-3.038 1.676-2.903 5.399-3.894 8.325-2.219l3.145-5.447c-0.899-0.515-1.678-1.266-2.232-2.226zM16 22.479c-3.578 0-6.479-2.901-6.479-6.479s2.901-6.479 6.479-6.479c3.578 0 6.479 2.901 6.479 6.479s-2.901 6.479-6.479 6.479z"></path>
</symbol>
<symbol id="icon-bin2" viewBox="0 0 32 32">
<path d="M6 32h20l2-22h-24zM20 4v-4h-8v4h-10v6l2-2h24l2 2v-6h-10zM18 4h-4v-2h4v2z"></path>
</symbol>
<symbol id="icon-bookmark" viewBox="0 0 32 32">
<path d="M6 0v32l10-10 10 10v-32z"></path>
</symbol>
<symbol id="icon-checkmark" viewBox="0 0 32 32">
<path d="M27 4l-15 15-7-7-5 5 12 12 20-20z"></path>
</symbol>
</defs>
</svg>
